<svg xmlns="http://www.w3.org/2000/svg" width="1572.818" height="1346.122" viewBox="0 0 1572.818 1346.122">
  <defs>
    <style>
      .cls-1 {
        fill: #e6b221;
        fill-rule: evenodd;
      }
    </style>
  </defs>
  <path id="Rounded_Rectangle_1" data-name="Rounded Rectangle 1" class="cls-1" d="M508.042,160.452H531.09c66.87,183.4,475.41-33.588,616.02,73.335,25.61,19.474,44.86,56.884,33.52,100.574-26.45,101.9-132.55,120.579-245.148,136.194-44.093,6.115-92.522.494-123.623,18.858q-1.047,2.1-2.1,4.191c23.936,9.362,42.921,14.489,58.668,31.429V535.51c-34.673,61.566-208.71,39.113-173.909-52.383,42.6-112.011,275.934-69.732,360.387-142.48v-4.19q-3.135-6.286-6.28-12.572c-179.809-7.392-423,112.712-528.017-58.669C505.2,240.07,489.828,195.763,508.042,160.452ZM267.083,537.605c93.061-.852,173.1,38.189,261.912,54.478,167.185,30.661,397.279,26.431,559.445-4.191,49.99-9.44,212.8-59.3,230.48-10.476,25.12,84.692-146.9,136.8-192.77,171.814,51.18-4.361,95.74-18.912,123.63,18.857q1.035,9.429,2.09,18.858-31.425,32.473-62.86,64.954c26.84,7.163,37.37,10.926,54.48,25.144-8.93,134.087-702.047,148.667-748.02,29.334,54.811-41.537,184.35-10.778,257.721-35.62v-4.191c-97.793-23.51-194.66-26.7-259.817-79.621l4.191-14.667c29.558-23.866,102.076-8.238,142.48-20.953v-4.191C558.7,727.941,103.007,654.671,267.083,537.605ZM1446.73,870.757c112.6-2.349,218.62,63.17,152.96,171.813-40.06,66.29-128.46,100.87-207.43,127.81-30.46,10.39-149.43,50.55-176.01,14.67-45.91-61.96,262-131.47,291.25-199.052l-2.1-16.762c-71.51-52.421-158.25,12.156-236.77,14.667q-2.085-2.1-4.19-4.191C1275.23,917.064,1388.72,890.288,1446.73,870.757ZM319.465,881.233c86.965,0.973,150.843,82.643,228.387,106.861,49.453,15.446,130.058,7.247,176.005,29.336v6.28c-83.977,37.76-300.13,52.6-375.058,2.1C313.5,1002.02,262.239,920.853,319.465,881.233ZM1216.25,1009.05q29.34,5.235,58.67,10.47c43.91,110.14-291.427,86.5-339.438,142.48-13.653,37.28,100.768,76.44,12.572,132.01C860,1349.48,509.959,1378.7,480.8,1256.29c-6.954-29.19,12.089-41.99,16.762-62.86-2.793-.7-5.588-1.39-8.381-2.09-51.2-12.28-132.133,17.56-117.337-58.67,77.669-73.44,231.943-23.75,358.3-41.91,137.052-19.69,249.136-38.91,368.777-64.95Q1157.57,1017.425,1216.25,1009.05ZM644.236,1218.58l2.1,20.95c43.453,33.19,181.84,34.35,205.339-18.86-2.095-1.4-4.191-2.79-6.286-4.19ZM68.03,1283.53c90.258-.02,172.995,51.14,255.627,69.14,214.734,46.79,537.108,69.45,781.544,27.24,78.46-13.54,147.56-24.08,215.82-46.09q65.985-24.1,132-48.19,22.005,8.37,44,16.76c24.78,109.28-224.76,159.66-320.58,178.1-282.828,54.42-645.172,17.24-884.214-52.38-82.36-23.99-207.765-46.39-245.149-115.25q2.1-9.42,4.191-18.85Q59.647,1288.76,68.03,1283.53Z" transform="translate(-47.063 -160.438)"/>
</svg>
